<svg width="20" height="21" viewBox="0 0 20 21" fill="none" xmlns="http://www.w3.org/2000/svg">
<path d="M10.0004 13.725C9.80568 13.7254 9.61699 13.6576 9.46706 13.5333L4.46706 9.36667C4.29688 9.22522 4.18986 9.02196 4.16954 8.8016C4.14923 8.58125 4.21728 8.36185 4.35873 8.19167C4.50017 8.02149 4.70343 7.91447 4.92379 7.89415C5.14414 7.87383 5.36355 7.94189 5.53373 8.08333L10.0004 11.8167L14.4671 8.21667C14.5523 8.14745 14.6504 8.09575 14.7557 8.06456C14.8609 8.03337 14.9714 8.02329 15.0805 8.03491C15.1897 8.04652 15.2956 8.0796 15.3919 8.13225C15.4883 8.18489 15.5733 8.25606 15.6421 8.34167C15.7184 8.42735 15.7762 8.52788 15.8118 8.63694C15.8475 8.746 15.8602 8.86125 15.8493 8.97547C15.8383 9.08969 15.8039 9.20041 15.7482 9.30071C15.6925 9.40101 15.6166 9.48871 15.5254 9.55834L10.5254 13.5833C10.3712 13.6879 10.1863 13.7378 10.0004 13.725Z" fill="#111827"/>
</svg>
